<?xml version="1.0" encoding="utf-8"?>
<!-- Generator: Adobe Illustrator 19.2.1, SVG Export Plug-In . SVG Version: 6.00 Build 0)  -->
<svg version="1.1" id="Réteg_1" xmlns="http://www.w3.org/2000/svg" xmlns:xlink="http://www.w3.org/1999/xlink" x="0px" y="0px"
	 viewBox="0 0 100 100" style="enable-background:new 0 0 100 100;" xml:space="preserve">
<style type="text/css">
	.background{fill:transparent;}
	.line{fill:#4A4A4A}
</style>
<g>
	<path class="background" d="M0,0c0,0,34.8,45,50,44c15.3-1,50-44,50-44"/>
	<path class="line" d="M0.4-0.3c0,0,1.4,1.6,3.9,4.3c2.5,2.7,6,6.6,10.4,11.2c4.4,4.6,9.5,9.8,15.4,15c2.9,2.6,6.1,5.1,9.4,7.4
		c1.7,1.1,3.4,2.1,5.1,2.9c1.7,0.8,3.6,1.3,5.1,1.3l0.1,0l0,0c0.2,0-0.2,0-0.1,0l0.2,0l0.4-0.1l0.8-0.1l1.2-0.3
		c0.8-0.3,1.8-0.6,2.6-1.1c1.8-0.9,3.5-1.9,5.1-3.1c3.3-2.3,6.5-4.8,9.4-7.4C75.3,24.6,80.6,19.5,85,15c4.4-4.5,8.1-8.3,10.6-11
		c2.5-2.7,4-4.2,4-4.2l0.8,0.6c0,0-1.2,1.7-3.5,4.7c-2.3,2.9-5.6,7.1-9.7,11.9c-2.1,2.4-4.4,5-6.9,7.6c-2.5,2.7-5.2,5.4-8.2,8.1
		c-3,2.7-6.1,5.5-9.6,7.9c-1.8,1.2-3.6,2.4-5.6,3.4c-1,0.5-2.1,1-3.2,1.4c-0.6,0.2-1.3,0.4-1.9,0.5l-0.8,0.1l-0.4,0.1l-0.2-0.1
		c0,0-0.3-0.1-0.2-0.1H50l-0.1,0.1c-2.7,0.1-5-0.7-7.1-1.7c-2.1-1-4-2.1-5.7-3.3c-3.6-2.4-6.7-5.2-9.7-7.9c-3-2.7-5.6-5.5-8.1-8.2
		c-2.5-2.7-4.8-5.3-6.8-7.7C8.4,12.3,5.2,8.1,3,5.1c-2.2-3-3.4-4.8-3.4-4.8L0.4-0.3z"/>
</g>
</svg>
